<?xml version="1.0" standalone="no"?>
<!DOCTYPE svg PUBLIC "-//W3C//DTD SVG 20010904//EN"
 "http://www.w3.org/TR/2001/REC-SVG-20010904/DTD/svg10.dtd">
<svg version="1.0" xmlns="http://www.w3.org/2000/svg"
 width="142.000000pt" height="142.000000pt" viewBox="0 0 142.000000 142.000000"
 preserveAspectRatio="xMidYMid meet">
<metadata>
Created by potrace 1.14, written by Peter Selinger 2001-2017
</metadata>
<g transform="translate(0.000000,142.000000) scale(0.100000,-0.100000)"
fill="#000000" stroke="none">
<path d="M131 1314 c18 -20 59 -53 89 -74 74 -51 84 -63 114 -150 15 -41 34
-86 43 -99 11 -16 12 -26 5 -29 -6 -2 -29 -16 -50 -32 -42 -30 -76 -75 -131
-172 l-32 -57 28 14 c33 18 62 19 100 4 72 -27 180 -1 292 71 68 44 68 42 5
-55 -18 -27 -36 -63 -40 -80 -4 -16 -15 -43 -25 -59 -23 -38 -9 -71 43 -97 46
-23 49 -47 14 -110 -14 -24 -27 -64 -31 -89 -10 -74 -16 -100 -25 -100 -16 0
-41 -32 -36 -46 3 -8 -1 -28 -8 -46 -10 -22 -11 -40 -5 -56 5 -13 7 -27 4 -32
-3 -5 0 -12 6 -16 7 -4 9 -3 6 3 -4 6 18 61 48 122 52 107 60 116 177 229 67
64 133 127 145 139 13 12 23 32 23 44 0 12 -24 68 -54 123 -30 56 -55 113 -57
126 -2 14 7 42 20 63 13 22 21 46 18 58 -5 18 -1 20 45 16 42 -4 60 1 126 34
85 43 152 55 225 41 26 -5 49 -6 52 -2 2 3 -1 7 -8 7 -38 2 -97 16 -128 29
-34 15 -39 15 -62 0 -13 -9 -35 -19 -48 -21 -13 -3 -45 -10 -72 -16 -42 -10
-56 -8 -117 12 -39 12 -70 26 -70 30 0 10 30 33 30 23 0 -5 5 -2 10 6 14 22
12 77 -2 83 -7 3 -5 6 6 6 19 1 19 1 0 22 -10 12 -37 30 -59 41 -22 10 -48 24
-57 31 -20 13 -44 3 -61 -25 -18 -28 2 -87 44 -129 41 -41 42 -57 6 -88 -12
-9 -21 -4 -48 31 -88 115 -208 207 -289 222 -91 16 -202 55 -214 75 -4 6 -12
11 -19 11 -6 0 5 -16 24 -36z m629 -803 c0 -5 -7 -14 -15 -21 -8 -6 -26 -32
-40 -56 -14 -24 -27 -44 -29 -44 -9 0 43 113 55 121 18 11 29 11 29 0z"/>
</g>
</svg>
